<mxfile host="app.diagrams.net" modified="2023-10-29T22:42:07.085Z" agent="Mozilla/5.0 (Windows NT 10.0; Win64; x64) AppleWebKit/537.36 (KHTML, like Gecko) Chrome/118.0.0.0 Safari/537.36" etag="YTOHN4x5W1Ur0tdUSUHv" version="22.0.8" type="onedrive" pages="6">
  <diagram id="q4QRCIhPtgPqIYOZLD8e" name="Structure">
    <mxGraphModel grid="0" page="1" gridSize="10" guides="1" tooltips="1" connect="1" arrows="1" fold="1" pageScale="1" pageWidth="850" pageHeight="1100" background="none" math="0" shadow="0">
      <root>
        <mxCell id="0" />
        <mxCell id="1" parent="0" />
        <mxCell id="pxI5KGZHbqPPpn1gUXsG-1" value="Start" style="swimlane;fontStyle=0;childLayout=stackLayout;horizontal=1;startSize=26;horizontalStack=0;resizeParent=1;resizeParentMax=0;resizeLast=0;collapsible=1;marginBottom=0;whiteSpace=wrap;html=1;strokeWidth=2;fillColor=#f5f5f5;fontColor=#333333;strokeColor=#666666;" vertex="1" parent="1">
          <mxGeometry x="90" y="150" width="220" height="104" as="geometry" />
        </mxCell>
        <mxCell id="pxI5KGZHbqPPpn1gUXsG-2" value="__init__ (GUI)" style="text;align=left;verticalAlign=top;spacingLeft=4;spacingRight=4;overflow=hidden;rotatable=0;points=[[0,0.5],[1,0.5]];portConstraint=eastwest;whiteSpace=wrap;html=1;fillColor=default;" vertex="1" parent="pxI5KGZHbqPPpn1gUXsG-1">
          <mxGeometry y="26" width="220" height="26" as="geometry" />
        </mxCell>
        <mxCell id="pxI5KGZHbqPPpn1gUXsG-3" value="check_number_of_questions" style="text;align=left;verticalAlign=top;spacingLeft=4;spacingRight=4;overflow=hidden;rotatable=0;points=[[0,0.5],[1,0.5]];portConstraint=eastwest;whiteSpace=wrap;html=1;fillColor=default;" vertex="1" parent="pxI5KGZHbqPPpn1gUXsG-1">
          <mxGeometry y="52" width="220" height="26" as="geometry" />
        </mxCell>
        <mxCell id="pxI5KGZHbqPPpn1gUXsG-4" value="to_enter" style="text;align=left;verticalAlign=top;spacingLeft=4;spacingRight=4;overflow=hidden;rotatable=0;points=[[0,0.5],[1,0.5]];portConstraint=eastwest;whiteSpace=wrap;html=1;fillColor=default;" vertex="1" parent="pxI5KGZHbqPPpn1gUXsG-1">
          <mxGeometry y="78" width="220" height="26" as="geometry" />
        </mxCell>
        <mxCell id="pxI5KGZHbqPPpn1gUXsG-5" value="Play" style="swimlane;fontStyle=0;childLayout=stackLayout;horizontal=1;startSize=26;horizontalStack=0;resizeParent=1;resizeParentMax=0;resizeLast=0;collapsible=1;marginBottom=0;whiteSpace=wrap;html=1;strokeWidth=2;fillColor=#f5f5f5;fontColor=#333333;strokeColor=#666666;" vertex="1" parent="1">
          <mxGeometry x="230" y="310" width="220" height="182" as="geometry" />
        </mxCell>
        <mxCell id="pxI5KGZHbqPPpn1gUXsG-6" value="__init__ (GUI)" style="text;align=left;verticalAlign=top;spacingLeft=4;spacingRight=4;overflow=hidden;rotatable=0;points=[[0,0.5],[1,0.5]];portConstraint=eastwest;whiteSpace=wrap;html=1;fillColor=#FFFFFF;" vertex="1" parent="pxI5KGZHbqPPpn1gUXsG-5">
          <mxGeometry y="26" width="220" height="26" as="geometry" />
        </mxCell>
        <mxCell id="pxI5KGZHbqPPpn1gUXsG-7" value="next_question" style="text;align=left;verticalAlign=top;spacingLeft=4;spacingRight=4;overflow=hidden;rotatable=0;points=[[0,0.5],[1,0.5]];portConstraint=eastwest;whiteSpace=wrap;html=1;fillColor=#FFFFFF;" vertex="1" parent="pxI5KGZHbqPPpn1gUXsG-5">
          <mxGeometry y="52" width="220" height="26" as="geometry" />
        </mxCell>
        <mxCell id="pxI5KGZHbqPPpn1gUXsG-8" value="right_or_wrong" style="text;align=left;verticalAlign=top;spacingLeft=4;spacingRight=4;overflow=hidden;rotatable=0;points=[[0,0.5],[1,0.5]];portConstraint=eastwest;whiteSpace=wrap;html=1;fillColor=#FFFFFF;" vertex="1" parent="pxI5KGZHbqPPpn1gUXsG-5">
          <mxGeometry y="78" width="220" height="26" as="geometry" />
        </mxCell>
        <mxCell id="pxI5KGZHbqPPpn1gUXsG-22" value="to _help" style="text;align=left;verticalAlign=top;spacingLeft=4;spacingRight=4;overflow=hidden;rotatable=0;points=[[0,0.5],[1,0.5]];portConstraint=eastwest;whiteSpace=wrap;html=1;fillColor=#FFFFFF;" vertex="1" parent="pxI5KGZHbqPPpn1gUXsG-5">
          <mxGeometry y="104" width="220" height="26" as="geometry" />
        </mxCell>
        <mxCell id="pxI5KGZHbqPPpn1gUXsG-23" value="to_stats" style="text;align=left;verticalAlign=top;spacingLeft=4;spacingRight=4;overflow=hidden;rotatable=0;points=[[0,0.5],[1,0.5]];portConstraint=eastwest;whiteSpace=wrap;html=1;fillColor=#FFFFFF;" vertex="1" parent="pxI5KGZHbqPPpn1gUXsG-5">
          <mxGeometry y="130" width="220" height="26" as="geometry" />
        </mxCell>
        <mxCell id="pxI5KGZHbqPPpn1gUXsG-24" value="new_game" style="text;align=left;verticalAlign=top;spacingLeft=4;spacingRight=4;overflow=hidden;rotatable=0;points=[[0,0.5],[1,0.5]];portConstraint=eastwest;whiteSpace=wrap;html=1;fillColor=#FFFFFF;" vertex="1" parent="pxI5KGZHbqPPpn1gUXsG-5">
          <mxGeometry y="156" width="220" height="26" as="geometry" />
        </mxCell>
        <mxCell id="pxI5KGZHbqPPpn1gUXsG-9" value="Help" style="swimlane;fontStyle=0;childLayout=stackLayout;horizontal=1;startSize=26;horizontalStack=0;resizeParent=1;resizeParentMax=0;resizeLast=0;collapsible=1;marginBottom=0;whiteSpace=wrap;html=1;strokeWidth=2;fillColor=#f5f5f5;fontColor=#333333;strokeColor=#666666;" vertex="1" parent="1">
          <mxGeometry x="500" y="300" width="220" height="78" as="geometry" />
        </mxCell>
        <mxCell id="pxI5KGZHbqPPpn1gUXsG-10" value="__init__ (GUI)" style="text;align=left;verticalAlign=top;spacingLeft=4;spacingRight=4;overflow=hidden;rotatable=0;points=[[0,0.5],[1,0.5]];portConstraint=eastwest;whiteSpace=wrap;html=1;fillColor=#FFFFFF;fontColor=#333333;strokeColor=#666666;" vertex="1" parent="pxI5KGZHbqPPpn1gUXsG-9">
          <mxGeometry y="26" width="220" height="26" as="geometry" />
        </mxCell>
        <mxCell id="pxI5KGZHbqPPpn1gUXsG-11" value="close_help" style="text;align=left;verticalAlign=top;spacingLeft=4;spacingRight=4;overflow=hidden;rotatable=0;points=[[0,0.5],[1,0.5]];portConstraint=eastwest;whiteSpace=wrap;html=1;fillColor=#FFFFFF;fontColor=#333333;strokeColor=#666666;" vertex="1" parent="pxI5KGZHbqPPpn1gUXsG-9">
          <mxGeometry y="52" width="220" height="26" as="geometry" />
        </mxCell>
        <mxCell id="pxI5KGZHbqPPpn1gUXsG-13" value="Stats" style="swimlane;fontStyle=0;childLayout=stackLayout;horizontal=1;startSize=26;horizontalStack=0;resizeParent=1;resizeParentMax=0;resizeLast=0;collapsible=1;marginBottom=0;whiteSpace=wrap;html=1;strokeWidth=2;fillColor=#f5f5f5;fontColor=#333333;strokeColor=#666666;" vertex="1" parent="1">
          <mxGeometry x="500" y="400" width="220" height="130" as="geometry" />
        </mxCell>
        <mxCell id="pxI5KGZHbqPPpn1gUXsG-14" value="__init__(GUI)" style="text;align=left;verticalAlign=top;spacingLeft=4;spacingRight=4;overflow=hidden;rotatable=0;points=[[0,0.5],[1,0.5]];portConstraint=eastwest;whiteSpace=wrap;html=1;fillColor=#FFFFFF;fontColor=#333333;strokeColor=#666666;" vertex="1" parent="pxI5KGZHbqPPpn1gUXsG-13">
          <mxGeometry y="26" width="220" height="26" as="geometry" />
        </mxCell>
        <mxCell id="pxI5KGZHbqPPpn1gUXsG-15" value="score" style="text;align=left;verticalAlign=top;spacingLeft=4;spacingRight=4;overflow=hidden;rotatable=0;points=[[0,0.5],[1,0.5]];portConstraint=eastwest;whiteSpace=wrap;html=1;fillColor=#FFFFFF;fontColor=#333333;strokeColor=#666666;" vertex="1" parent="pxI5KGZHbqPPpn1gUXsG-13">
          <mxGeometry y="52" width="220" height="26" as="geometry" />
        </mxCell>
        <mxCell id="pxI5KGZHbqPPpn1gUXsG-16" value="total" style="text;align=left;verticalAlign=top;spacingLeft=4;spacingRight=4;overflow=hidden;rotatable=0;points=[[0,0.5],[1,0.5]];portConstraint=eastwest;whiteSpace=wrap;html=1;fillColor=#FFFFFF;fontColor=#333333;strokeColor=#666666;" vertex="1" parent="pxI5KGZHbqPPpn1gUXsG-13">
          <mxGeometry y="78" width="220" height="26" as="geometry" />
        </mxCell>
        <mxCell id="H3dqRBRQTbvUYtWInlOu-1" value="close_stats" style="text;align=left;verticalAlign=top;spacingLeft=4;spacingRight=4;overflow=hidden;rotatable=0;points=[[0,0.5],[1,0.5]];portConstraint=eastwest;whiteSpace=wrap;html=1;fillColor=#FFFFFF;fontColor=#333333;strokeColor=#666666;" vertex="1" parent="pxI5KGZHbqPPpn1gUXsG-13">
          <mxGeometry y="104" width="220" height="26" as="geometry" />
        </mxCell>
        <mxCell id="H3dqRBRQTbvUYtWInlOu-4" style="edgeStyle=orthogonalEdgeStyle;rounded=0;orthogonalLoop=1;jettySize=auto;html=1;exitX=0;exitY=0.5;exitDx=0;exitDy=0;entryX=0;entryY=0.5;entryDx=0;entryDy=0;fillColor=#f5f5f5;strokeColor=#666666;" edge="1" parent="1" source="pxI5KGZHbqPPpn1gUXsG-4" target="pxI5KGZHbqPPpn1gUXsG-6">
          <mxGeometry relative="1" as="geometry" />
        </mxCell>
        <mxCell id="H3dqRBRQTbvUYtWInlOu-5" style="edgeStyle=orthogonalEdgeStyle;rounded=0;orthogonalLoop=1;jettySize=auto;html=1;exitX=0;exitY=0.5;exitDx=0;exitDy=0;entryX=-0.009;entryY=0.1;entryDx=0;entryDy=0;entryPerimeter=0;" edge="1" parent="1" source="pxI5KGZHbqPPpn1gUXsG-24" target="pxI5KGZHbqPPpn1gUXsG-1">
          <mxGeometry relative="1" as="geometry">
            <Array as="points">
              <mxPoint x="40" y="479" />
              <mxPoint x="40" y="163" />
            </Array>
          </mxGeometry>
        </mxCell>
        <mxCell id="H3dqRBRQTbvUYtWInlOu-6" style="edgeStyle=orthogonalEdgeStyle;rounded=0;orthogonalLoop=1;jettySize=auto;html=1;exitX=1;exitY=0.5;exitDx=0;exitDy=0;entryX=0;entryY=0.5;entryDx=0;entryDy=0;fillColor=#f5f5f5;strokeColor=#666666;" edge="1" parent="1" source="pxI5KGZHbqPPpn1gUXsG-22" target="pxI5KGZHbqPPpn1gUXsG-9">
          <mxGeometry relative="1" as="geometry" />
        </mxCell>
        <mxCell id="H3dqRBRQTbvUYtWInlOu-7" style="edgeStyle=orthogonalEdgeStyle;rounded=0;orthogonalLoop=1;jettySize=auto;html=1;exitX=1;exitY=0.5;exitDx=0;exitDy=0;entryX=0;entryY=0.5;entryDx=0;entryDy=0;fillColor=#f5f5f5;strokeColor=#666666;" edge="1" parent="1" source="pxI5KGZHbqPPpn1gUXsG-23" target="pxI5KGZHbqPPpn1gUXsG-14">
          <mxGeometry relative="1" as="geometry" />
        </mxCell>
      </root>
    </mxGraphModel>
  </diagram>
  <diagram name="Decomposition" id="t9PtFYnISOWZuL5vEATQ">
    <mxGraphModel grid="0" page="1" gridSize="10" guides="1" tooltips="1" connect="1" arrows="1" fold="1" pageScale="1" pageWidth="850" pageHeight="1100" background="#d9ead3ff" math="0" shadow="0">
      <root>
        <mxCell id="0" />
        <mxCell id="1" parent="0" />
        <mxCell id="h9OmLQMeomUQ_xvynFdL-23" value="Decomposition" style="rounded=0;whiteSpace=wrap;html=1;fillColor=#f5f5f5;fontColor=#333333;strokeColor=#666666;" vertex="1" parent="1">
          <mxGeometry x="30" y="70" width="160" height="40" as="geometry" />
        </mxCell>
        <mxCell id="h9OmLQMeomUQ_xvynFdL-26" value="Help" style="rounded=0;whiteSpace=wrap;html=1;fillColor=#B4F0A8;strokeColor=#82b366;" vertex="1" parent="1">
          <mxGeometry x="30" y="230" width="160" height="60" as="geometry" />
        </mxCell>
        <mxCell id="1CYwt3I3EyBduHBtgaiB-10" value="History" style="rounded=0;whiteSpace=wrap;html=1;fillColor=#B4F0A8;strokeColor=#82B366;" vertex="1" parent="1">
          <mxGeometry x="30" y="290" width="160" height="60" as="geometry" />
        </mxCell>
        <mxCell id="xqatI-liylnDu_NLeYKf-1" value="Check the number of rounds" style="rounded=0;whiteSpace=wrap;html=1;fillColor=#B4F0A8;strokeColor=#82b366;" vertex="1" parent="1">
          <mxGeometry x="220" y="170" width="160" height="60" as="geometry" />
        </mxCell>
        <mxCell id="xqatI-liylnDu_NLeYKf-5" value="Start" style="rounded=0;whiteSpace=wrap;html=1;fillColor=#B4F0A8;strokeColor=#82b366;" vertex="1" parent="1">
          <mxGeometry x="30" y="110" width="160" height="60" as="geometry" />
        </mxCell>
        <mxCell id="ZQCfun5yfnWmYZRmgzhl-4" value="Disable history in the beginning" style="rounded=0;whiteSpace=wrap;html=1;fillColor=#B4F0A8;strokeColor=#82b366;" vertex="1" parent="1">
          <mxGeometry x="425" y="530" width="160" height="60" as="geometry" />
        </mxCell>
        <mxCell id="ZQCfun5yfnWmYZRmgzhl-5" value="Create GUI" style="rounded=0;whiteSpace=wrap;html=1;fillColor=#B4F0A8;strokeColor=#82b366;" vertex="1" parent="1">
          <mxGeometry x="220" y="110" width="160" height="60" as="geometry" />
        </mxCell>
        <mxCell id="ZQCfun5yfnWmYZRmgzhl-8" value="Nice to have" style="rounded=0;whiteSpace=wrap;html=1;fillColor=#f5f5f5;fontColor=#333333;strokeColor=#666666;" vertex="1" parent="1">
          <mxGeometry x="640" y="120" width="160" height="40" as="geometry" />
        </mxCell>
        <mxCell id="ZQCfun5yfnWmYZRmgzhl-11" value="Shows the right answer" style="rounded=0;whiteSpace=wrap;html=1;fillColor=#FFCCCC;strokeColor=#b85450;" vertex="1" parent="1">
          <mxGeometry x="640" y="160" width="160" height="60" as="geometry" />
        </mxCell>
        <mxCell id="ZQCfun5yfnWmYZRmgzhl-12" value="The &quot;Next Round&quot; button change to &quot;Play Again&quot;&amp;nbsp;" style="rounded=0;whiteSpace=wrap;html=1;fillColor=#FFCCCC;strokeColor=#b85450;" vertex="1" parent="1">
          <mxGeometry x="640" y="220" width="160" height="60" as="geometry" />
        </mxCell>
        <mxCell id="qjNtScWhAvkuH1CTF3hB-1" value="Start" style="rounded=0;whiteSpace=wrap;html=1;fillColor=#f5f5f5;fontColor=#333333;strokeColor=#666666;" vertex="1" parent="1">
          <mxGeometry x="220" y="70" width="160" height="40" as="geometry" />
        </mxCell>
        <mxCell id="qjNtScWhAvkuH1CTF3hB-2" value="Enter Button" style="rounded=0;whiteSpace=wrap;html=1;fillColor=#B4F0A8;strokeColor=#82b366;" vertex="1" parent="1">
          <mxGeometry x="220" y="230" width="160" height="60" as="geometry" />
        </mxCell>
        <mxCell id="qjNtScWhAvkuH1CTF3hB-3" value="Play" style="rounded=0;whiteSpace=wrap;html=1;fillColor=#B4F0A8;strokeColor=#82b366;" vertex="1" parent="1">
          <mxGeometry x="30" y="170" width="160" height="60" as="geometry" />
        </mxCell>
        <mxCell id="qjNtScWhAvkuH1CTF3hB-16" value="Import country csv&amp;nbsp;" style="rounded=0;whiteSpace=wrap;html=1;fillColor=#B4F0A8;strokeColor=#82b366;" vertex="1" parent="1">
          <mxGeometry x="425" y="170" width="160" height="60" as="geometry" />
        </mxCell>
        <mxCell id="qjNtScWhAvkuH1CTF3hB-19" value="Create GUI" style="rounded=0;whiteSpace=wrap;html=1;fillColor=#B4F0A8;strokeColor=#82b366;" vertex="1" parent="1">
          <mxGeometry x="425" y="110" width="160" height="60" as="geometry" />
        </mxCell>
        <mxCell id="qjNtScWhAvkuH1CTF3hB-20" value="Play" style="rounded=0;whiteSpace=wrap;html=1;fillColor=#f5f5f5;fontColor=#333333;strokeColor=#666666;" vertex="1" parent="1">
          <mxGeometry x="425" y="70" width="160" height="40" as="geometry" />
        </mxCell>
        <mxCell id="qjNtScWhAvkuH1CTF3hB-21" value="Generate choices&amp;nbsp;" style="rounded=0;whiteSpace=wrap;html=1;fillColor=#B4F0A8;strokeColor=#82b366;" vertex="1" parent="1">
          <mxGeometry x="425" y="230" width="160" height="60" as="geometry" />
        </mxCell>
        <mxCell id="qjNtScWhAvkuH1CTF3hB-22" value="Dismiss help" style="rounded=0;whiteSpace=wrap;html=1;fillColor=#B4F0A8;strokeColor=#82b366;" vertex="1" parent="1">
          <mxGeometry x="30" y="490" width="160" height="60" as="geometry" />
        </mxCell>
        <mxCell id="qjNtScWhAvkuH1CTF3hB-25" value="Create GUI" style="rounded=0;whiteSpace=wrap;html=1;fillColor=#B4F0A8;strokeColor=#82b366;" vertex="1" parent="1">
          <mxGeometry x="30" y="430" width="160" height="60" as="geometry" />
        </mxCell>
        <mxCell id="qjNtScWhAvkuH1CTF3hB-26" value="Help" style="rounded=0;whiteSpace=wrap;html=1;fillColor=#f5f5f5;fontColor=#333333;strokeColor=#666666;" vertex="1" parent="1">
          <mxGeometry x="30" y="390" width="160" height="40" as="geometry" />
        </mxCell>
        <mxCell id="bPzCSTktFT-xZ0o5fc-c-1" value="Help" style="rounded=0;whiteSpace=wrap;html=1;fillColor=#B4F0A8;strokeColor=#82b366;" vertex="1" parent="1">
          <mxGeometry x="425" y="590" width="160" height="60" as="geometry" />
        </mxCell>
        <mxCell id="B4TaMokVP2hIUacADpzD-1" value="Show history" style="rounded=0;whiteSpace=wrap;html=1;fillColor=#B4F0A8;strokeColor=#82b366;" vertex="1" parent="1">
          <mxGeometry x="220" y="490" width="160" height="60" as="geometry" />
        </mxCell>
        <mxCell id="B4TaMokVP2hIUacADpzD-2" value="Create GUI" style="rounded=0;whiteSpace=wrap;html=1;fillColor=#B4F0A8;strokeColor=#82b366;" vertex="1" parent="1">
          <mxGeometry x="220" y="430" width="160" height="60" as="geometry" />
        </mxCell>
        <mxCell id="B4TaMokVP2hIUacADpzD-3" value="History" style="rounded=0;whiteSpace=wrap;html=1;fillColor=#f5f5f5;fontColor=#333333;strokeColor=#666666;" vertex="1" parent="1">
          <mxGeometry x="220" y="390" width="160" height="40" as="geometry" />
        </mxCell>
        <mxCell id="B4TaMokVP2hIUacADpzD-5" value="Close history" style="rounded=0;whiteSpace=wrap;html=1;fillColor=#B4F0A8;strokeColor=#82b366;" vertex="1" parent="1">
          <mxGeometry x="220" y="550" width="160" height="60" as="geometry" />
        </mxCell>
        <mxCell id="SeMlGf9tQAbImrWVxII0-1" value="Show if&amp;nbsp; the user is right or wrong" style="rounded=0;whiteSpace=wrap;html=1;fillColor=#B4F0A8;strokeColor=#82b366;" vertex="1" parent="1">
          <mxGeometry x="425" y="290" width="160" height="60" as="geometry" />
        </mxCell>
        <mxCell id="q6YpwVP9hOCw5eyVDrEs-1" value="Next Button" style="rounded=0;whiteSpace=wrap;html=1;fillColor=#B4F0A8;strokeColor=#82b366;" vertex="1" parent="1">
          <mxGeometry x="425" y="350" width="160" height="60" as="geometry" />
        </mxCell>
        <mxCell id="q6YpwVP9hOCw5eyVDrEs-2" value="Display number of right and wrong" style="rounded=0;whiteSpace=wrap;html=1;fillColor=#FFCCCC;strokeColor=#b85450;" vertex="1" parent="1">
          <mxGeometry x="425" y="410" width="160" height="60" as="geometry" />
        </mxCell>
        <mxCell id="q6YpwVP9hOCw5eyVDrEs-3" value="Start Over&amp;nbsp;" style="rounded=0;whiteSpace=wrap;html=1;fillColor=#B4F0A8;strokeColor=#82b366;" vertex="1" parent="1">
          <mxGeometry x="425" y="470" width="160" height="60" as="geometry" />
        </mxCell>
      </root>
    </mxGraphModel>
  </diagram>
  <diagram id="6kn8KZu_y6-ZMeoDdNKb" name="Intro_GUI">
    <mxGraphModel grid="0" page="1" gridSize="13" guides="1" tooltips="1" connect="1" arrows="1" fold="1" pageScale="1" pageWidth="850" pageHeight="1100" background="none" math="0" shadow="0">
      <root>
        <mxCell id="0" />
        <mxCell id="1" parent="0" />
        <mxCell id="6eBi7xlVvxf0CtoHbwyv-10" value="Country Capitals&amp;nbsp;" style="strokeWidth=1;shadow=0;dashed=0;align=center;html=1;shape=mxgraph.mockup.containers.window;align=left;verticalAlign=top;spacingLeft=8;strokeColor2=#008cff;strokeColor3=#c4c4c4;fontColor=#666666;mainText=;fontSize=17;labelBackgroundColor=none;whiteSpace=wrap;" vertex="1" parent="1">
          <mxGeometry x="120" y="100" width="500" height="260" as="geometry" />
        </mxCell>
        <mxCell id="Jrwbon83_9pZJEBusU6J-2" value="&lt;b style=&quot;font-size: 20px;&quot;&gt;Country Capitals&lt;/b&gt;" style="strokeWidth=0;shadow=0;dashed=0;align=center;html=1;shape=mxgraph.mockup.text.textBox;fontColor=#000000;align=left;fontSize=20;spacingLeft=4;spacingTop=-3;whiteSpace=wrap;strokeColor=none;mainText=" vertex="1" parent="1">
          <mxGeometry x="276.25" y="150" width="175" height="30" as="geometry" />
        </mxCell>
        <mxCell id="Jrwbon83_9pZJEBusU6J-4" value="&lt;font style=&quot;font-size: 14px;&quot;&gt;Please enter how many questions you would like to answer and press enter.&amp;nbsp;&lt;/font&gt;" style="strokeWidth=0;shadow=0;dashed=0;align=center;html=1;shape=mxgraph.mockup.text.textBox;fontColor=#666666;align=left;fontSize=14;spacingLeft=4;spacingTop=-3;whiteSpace=wrap;strokeColor=none;mainText=" vertex="1" parent="1">
          <mxGeometry x="127" y="200" width="483" height="20" as="geometry" />
        </mxCell>
        <mxCell id="Jrwbon83_9pZJEBusU6J-5" value="" style="strokeWidth=1;shadow=0;dashed=0;align=center;html=1;shape=mxgraph.mockup.text.textBox;fontColor=#666666;align=left;fontSize=17;spacingLeft=4;spacingTop=-3;whiteSpace=wrap;strokeColor=#666666;mainText=" vertex="1" parent="1">
          <mxGeometry x="170" y="250" width="267.5" height="40" as="geometry" />
        </mxCell>
        <mxCell id="Jrwbon83_9pZJEBusU6J-6" value="&lt;b&gt;&lt;font color=&quot;#cc0000&quot;&gt;Enter a valid number&amp;nbsp;&lt;/font&gt;&lt;/b&gt;" style="strokeWidth=1;shadow=0;dashed=0;align=center;html=1;shape=mxgraph.mockup.text.textBox;fontColor=#666666;align=left;fontSize=17;spacingLeft=4;spacingTop=-3;whiteSpace=wrap;strokeColor=none;mainText=" vertex="1" parent="1">
          <mxGeometry x="280" y="310" width="180" height="30" as="geometry" />
        </mxCell>
        <mxCell id="6eBi7xlVvxf0CtoHbwyv-9" value="" style="endArrow=none;html=1;rounded=0;strokeWidth=2;strokeColor=#CC0000;" edge="1" parent="1">
          <mxGeometry width="50" height="50" relative="1" as="geometry">
            <mxPoint x="89" y="190" as="sourcePoint" />
            <mxPoint x="710.75" y="190" as="targetPoint" />
          </mxGeometry>
        </mxCell>
        <mxCell id="Jrwbon83_9pZJEBusU6J-9" value="" style="endArrow=none;html=1;rounded=0;strokeWidth=2;strokeColor=#CC0000;" edge="1" parent="1">
          <mxGeometry width="50" height="50" relative="1" as="geometry">
            <mxPoint x="93" y="300" as="sourcePoint" />
            <mxPoint x="708.75" y="300" as="targetPoint" />
          </mxGeometry>
        </mxCell>
        <mxCell id="Jrwbon83_9pZJEBusU6J-13" value="Enter" style="strokeWidth=1;shadow=0;dashed=0;align=center;html=1;shape=mxgraph.mockup.buttons.button;strokeColor=#82b366;mainText=;buttonStyle=round;fontSize=17;fontStyle=1;fillColor=#d5e8d4;whiteSpace=wrap;" vertex="1" parent="1">
          <mxGeometry x="450" y="250" width="150" height="40" as="geometry" />
        </mxCell>
        <mxCell id="hCsxsuuSUhahEjatSuYB-1" value="row=0" style="text;html=1;align=center;verticalAlign=middle;whiteSpace=wrap;rounded=0;fillColor=#dae8fc;strokeColor=#6c8ebf;" vertex="1" parent="1">
          <mxGeometry x="630" y="140" width="60" height="30" as="geometry" />
        </mxCell>
        <mxCell id="hCsxsuuSUhahEjatSuYB-2" value="row=1" style="text;html=1;align=center;verticalAlign=middle;whiteSpace=wrap;rounded=0;fillColor=#dae8fc;strokeColor=#6c8ebf;" vertex="1" parent="1">
          <mxGeometry x="630" y="195" width="60" height="30" as="geometry" />
        </mxCell>
        <mxCell id="hCsxsuuSUhahEjatSuYB-3" value="row=2" style="text;html=1;align=center;verticalAlign=middle;whiteSpace=wrap;rounded=0;fillColor=#dae8fc;strokeColor=#6c8ebf;" vertex="1" parent="1">
          <mxGeometry x="640" y="255" width="60" height="30" as="geometry" />
        </mxCell>
        <mxCell id="hCsxsuuSUhahEjatSuYB-4" value="row=3" style="text;html=1;align=center;verticalAlign=middle;whiteSpace=wrap;rounded=0;fillColor=#dae8fc;strokeColor=#6c8ebf;" vertex="1" parent="1">
          <mxGeometry x="640" y="310" width="60" height="30" as="geometry" />
        </mxCell>
        <mxCell id="HUvp2K-qfmELhTM2lUDl-2" value="" style="endArrow=none;html=1;rounded=0;strokeWidth=2;strokeColor=#CC0000;" edge="1" parent="1">
          <mxGeometry width="50" height="50" relative="1" as="geometry">
            <mxPoint x="91" y="229.62" as="sourcePoint" />
            <mxPoint x="712.75" y="229.62" as="targetPoint" />
          </mxGeometry>
        </mxCell>
      </root>
    </mxGraphModel>
  </diagram>
  <diagram id="JxMHJ37UIa8xYuWOtqUi" name="Game_Play_GUI">
    <mxGraphModel grid="0" page="1" gridSize="10" guides="1" tooltips="1" connect="1" arrows="1" fold="1" pageScale="1" pageWidth="850" pageHeight="1100" background="none" math="0" shadow="0">
      <root>
        <mxCell id="0" />
        <mxCell id="1" parent="0" />
        <mxCell id="MjX7jiqp8YWznEHAQ6yd-1" value="Country Capital" style="strokeWidth=1;shadow=0;dashed=0;align=center;html=1;shape=mxgraph.mockup.containers.window;align=left;verticalAlign=top;spacingLeft=8;strokeColor2=#008cff;strokeColor3=#c4c4c4;fontColor=#666666;mainText=;fontSize=17;labelBackgroundColor=none;whiteSpace=wrap;" vertex="1" parent="1">
          <mxGeometry x="50" y="80" width="500" height="350" as="geometry" />
        </mxCell>
        <mxCell id="As9kuIdFyRRuW1Yy7qJs-1" value="Question # of #" style="text;strokeColor=none;fillColor=none;html=1;fontSize=24;fontStyle=1;verticalAlign=middle;align=center;" vertex="1" parent="1">
          <mxGeometry x="50" y="120" width="500" height="40" as="geometry" />
        </mxCell>
        <UserObject label="What is the capital of [Country]?" placeholders="1" name="Variable" id="As9kuIdFyRRuW1Yy7qJs-2">
          <mxCell style="text;html=1;strokeColor=none;fillColor=none;align=center;verticalAlign=middle;whiteSpace=wrap;overflow=hidden;" vertex="1" parent="1">
            <mxGeometry x="50" y="160" width="500" height="40" as="geometry" />
          </mxCell>
        </UserObject>
        <mxCell id="f2P6msl84ZL06AJOFm4w-1" value="Option 1" style="strokeWidth=1;shadow=0;dashed=0;align=center;html=1;shape=mxgraph.mockup.buttons.button;strokeColor=#666666;fontColor=#ffffff;mainText=;buttonStyle=round;fontSize=17;fontStyle=1;fillColor=#008cff;whiteSpace=wrap;" vertex="1" parent="1">
          <mxGeometry x="90" y="210" width="200" height="50" as="geometry" />
        </mxCell>
        <mxCell id="f2P6msl84ZL06AJOFm4w-5" value="Option 4" style="strokeWidth=1;shadow=0;dashed=0;align=center;html=1;shape=mxgraph.mockup.buttons.button;strokeColor=#666666;fontColor=#ffffff;mainText=;buttonStyle=round;fontSize=17;fontStyle=1;fillColor=#008cff;whiteSpace=wrap;" vertex="1" parent="1">
          <mxGeometry x="315" y="270" width="200" height="50" as="geometry" />
        </mxCell>
        <mxCell id="f2P6msl84ZL06AJOFm4w-6" value="Option 3" style="strokeWidth=1;shadow=0;dashed=0;align=center;html=1;shape=mxgraph.mockup.buttons.button;strokeColor=#666666;fontColor=#ffffff;mainText=;buttonStyle=round;fontSize=17;fontStyle=1;fillColor=#008cff;whiteSpace=wrap;" vertex="1" parent="1">
          <mxGeometry x="90" y="270" width="200" height="50" as="geometry" />
        </mxCell>
        <mxCell id="f2P6msl84ZL06AJOFm4w-7" value="&lt;font color=&quot;#ffffff&quot;&gt;Option 2&lt;/font&gt;" style="strokeWidth=1;shadow=0;dashed=0;align=center;html=1;shape=mxgraph.mockup.buttons.button;strokeColor=#666666;mainText=;buttonStyle=round;fontSize=17;fontStyle=1;fillColor=#008CFF;whiteSpace=wrap;" vertex="1" parent="1">
          <mxGeometry x="315" y="210" width="200" height="50" as="geometry" />
        </mxCell>
        <mxCell id="wm2qEO78UqIm0D2Gvc66-6" value="Next Question" style="strokeWidth=1;shadow=0;dashed=0;align=center;html=1;shape=mxgraph.mockup.buttons.button;strokeColor=#10739e;mainText=;buttonStyle=round;fontSize=17;fontStyle=1;fillColor=#b1ddf0;whiteSpace=wrap;" vertex="1" parent="1">
          <mxGeometry x="70" y="340" width="110" height="50" as="geometry" />
        </mxCell>
        <mxCell id="wm2qEO78UqIm0D2Gvc66-13" value="Start Over" style="strokeWidth=1;shadow=0;dashed=0;align=center;html=1;shape=mxgraph.mockup.buttons.button;strokeColor=#ae4132;mainText=;buttonStyle=round;fontSize=17;fontStyle=1;fillColor=#fad9d5;whiteSpace=wrap;" vertex="1" parent="1">
          <mxGeometry x="190" y="340" width="110" height="50" as="geometry" />
        </mxCell>
        <mxCell id="wm2qEO78UqIm0D2Gvc66-14" value="Help" style="strokeWidth=1;shadow=0;dashed=0;align=center;html=1;shape=mxgraph.mockup.buttons.button;strokeColor=#d79b00;mainText=;buttonStyle=round;fontSize=17;fontStyle=1;fillColor=#ffe6cc;whiteSpace=wrap;" vertex="1" parent="1">
          <mxGeometry x="310" y="340" width="110" height="50" as="geometry" />
        </mxCell>
        <mxCell id="wm2qEO78UqIm0D2Gvc66-15" value="Stats" style="strokeWidth=1;shadow=0;dashed=0;align=center;html=1;shape=mxgraph.mockup.buttons.button;strokeColor=#6c8ebf;mainText=;buttonStyle=round;fontSize=17;fontStyle=1;fillColor=#dae8fc;whiteSpace=wrap;" vertex="1" parent="1">
          <mxGeometry x="425" y="340" width="110" height="50" as="geometry" />
        </mxCell>
        <mxCell id="4QSuUahkNUNmPtRlDnH3-1" value="The right option turns green while the wrong answers turns red." style="text;html=1;strokeColor=none;fillColor=none;align=left;verticalAlign=top;whiteSpace=wrap;rounded=0;" vertex="1" parent="1">
          <mxGeometry x="5" y="599" width="220" height="43" as="geometry" />
        </mxCell>
        <mxCell id="JKUaPWv2qrTlthpX7AAI-1" value="Country Capital" style="strokeWidth=1;shadow=0;dashed=0;align=center;html=1;shape=mxgraph.mockup.containers.window;align=left;verticalAlign=top;spacingLeft=8;strokeColor2=#008cff;strokeColor3=#c4c4c4;fontColor=#666666;mainText=;fontSize=17;labelBackgroundColor=none;whiteSpace=wrap;" vertex="1" parent="1">
          <mxGeometry x="240" y="580" width="500" height="350" as="geometry" />
        </mxCell>
        <mxCell id="JKUaPWv2qrTlthpX7AAI-2" value="Question # of #" style="text;strokeColor=none;fillColor=none;html=1;fontSize=24;fontStyle=1;verticalAlign=middle;align=center;" vertex="1" parent="1">
          <mxGeometry x="240" y="620" width="500" height="40" as="geometry" />
        </mxCell>
        <UserObject label="What is the capital of [Country]?" placeholders="1" name="Variable" id="JKUaPWv2qrTlthpX7AAI-3">
          <mxCell style="text;html=1;strokeColor=none;fillColor=none;align=center;verticalAlign=middle;whiteSpace=wrap;overflow=hidden;" vertex="1" parent="1">
            <mxGeometry x="240" y="660" width="500" height="40" as="geometry" />
          </mxCell>
        </UserObject>
        <mxCell id="JKUaPWv2qrTlthpX7AAI-4" value="Option 1" style="strokeWidth=1;shadow=0;dashed=0;align=center;html=1;shape=mxgraph.mockup.buttons.button;mainText=;buttonStyle=round;fontSize=17;fontStyle=1;whiteSpace=wrap;" vertex="1" parent="1">
          <mxGeometry x="280" y="710" width="200" height="50" as="geometry" />
        </mxCell>
        <mxCell id="JKUaPWv2qrTlthpX7AAI-5" value="Option 4" style="strokeWidth=1;shadow=0;dashed=0;align=center;html=1;shape=mxgraph.mockup.buttons.button;mainText=;buttonStyle=round;fontSize=17;fontStyle=1;whiteSpace=wrap;fillColor=#FF0000;" vertex="1" parent="1">
          <mxGeometry x="505" y="770" width="200" height="50" as="geometry" />
        </mxCell>
        <mxCell id="JKUaPWv2qrTlthpX7AAI-6" value="Option 3" style="strokeWidth=1;shadow=0;dashed=0;align=center;html=1;shape=mxgraph.mockup.buttons.button;mainText=;buttonStyle=round;fontSize=17;fontStyle=1;whiteSpace=wrap;" vertex="1" parent="1">
          <mxGeometry x="280" y="770" width="200" height="50" as="geometry" />
        </mxCell>
        <mxCell id="JKUaPWv2qrTlthpX7AAI-7" value="Option 2" style="strokeWidth=1;shadow=0;dashed=0;align=center;html=1;shape=mxgraph.mockup.buttons.button;mainText=;buttonStyle=round;fontSize=17;fontStyle=1;whiteSpace=wrap;" vertex="1" parent="1">
          <mxGeometry x="505" y="710" width="200" height="50" as="geometry" />
        </mxCell>
        <mxCell id="JKUaPWv2qrTlthpX7AAI-8" value="Next Question" style="strokeWidth=1;shadow=0;dashed=0;align=center;html=1;shape=mxgraph.mockup.buttons.button;strokeColor=#10739e;mainText=;buttonStyle=round;fontSize=17;fontStyle=1;fillColor=#b1ddf0;whiteSpace=wrap;" vertex="1" parent="1">
          <mxGeometry x="260" y="840" width="110" height="50" as="geometry" />
        </mxCell>
        <mxCell id="JKUaPWv2qrTlthpX7AAI-9" value="Start Over" style="strokeWidth=1;shadow=0;dashed=0;align=center;html=1;shape=mxgraph.mockup.buttons.button;strokeColor=#ae4132;mainText=;buttonStyle=round;fontSize=17;fontStyle=1;fillColor=#fad9d5;whiteSpace=wrap;" vertex="1" parent="1">
          <mxGeometry x="380" y="840" width="110" height="50" as="geometry" />
        </mxCell>
        <mxCell id="JKUaPWv2qrTlthpX7AAI-10" value="Help" style="strokeWidth=1;shadow=0;dashed=0;align=center;html=1;shape=mxgraph.mockup.buttons.button;strokeColor=#d79b00;mainText=;buttonStyle=round;fontSize=17;fontStyle=1;fillColor=#ffe6cc;whiteSpace=wrap;" vertex="1" parent="1">
          <mxGeometry x="500" y="840" width="110" height="50" as="geometry" />
        </mxCell>
        <mxCell id="JKUaPWv2qrTlthpX7AAI-11" value="Stats" style="strokeWidth=1;shadow=0;dashed=0;align=center;html=1;shape=mxgraph.mockup.buttons.button;strokeColor=#6c8ebf;mainText=;buttonStyle=round;fontSize=17;fontStyle=1;fillColor=#dae8fc;whiteSpace=wrap;" vertex="1" parent="1">
          <mxGeometry x="615" y="840" width="110" height="50" as="geometry" />
        </mxCell>
        <mxCell id="C7pn-Whf5OJO-GKli3ls-1" value="row=0" style="text;html=1;strokeColor=#b85450;fillColor=#f8cecc;align=center;verticalAlign=middle;whiteSpace=wrap;rounded=0;" vertex="1" parent="1">
          <mxGeometry x="535" y="125" width="60" height="30" as="geometry" />
        </mxCell>
        <mxCell id="C7pn-Whf5OJO-GKli3ls-2" value="" style="endArrow=none;html=1;rounded=0;fillColor=#f8cecc;strokeColor=#b85450;strokeWidth=2;" edge="1" parent="1">
          <mxGeometry width="50" height="50" relative="1" as="geometry">
            <mxPoint x="30" y="160" as="sourcePoint" />
            <mxPoint x="600" y="160" as="targetPoint" />
            <Array as="points">
              <mxPoint x="110" y="160" />
            </Array>
          </mxGeometry>
        </mxCell>
        <mxCell id="C7pn-Whf5OJO-GKli3ls-3" value="" style="endArrow=none;html=1;rounded=0;fillColor=#f8cecc;strokeColor=#b85450;strokeWidth=2;" edge="1" parent="1">
          <mxGeometry width="50" height="50" relative="1" as="geometry">
            <mxPoint x="30" y="200" as="sourcePoint" />
            <mxPoint x="600" y="200" as="targetPoint" />
            <Array as="points">
              <mxPoint x="110" y="200" />
            </Array>
          </mxGeometry>
        </mxCell>
        <mxCell id="C7pn-Whf5OJO-GKli3ls-4" value="" style="endArrow=none;html=1;rounded=0;fillColor=#f8cecc;strokeColor=#b85450;strokeWidth=2;" edge="1" parent="1">
          <mxGeometry width="50" height="50" relative="1" as="geometry">
            <mxPoint x="30" y="330" as="sourcePoint" />
            <mxPoint x="600" y="330" as="targetPoint" />
            <Array as="points">
              <mxPoint x="110" y="330" />
            </Array>
          </mxGeometry>
        </mxCell>
        <mxCell id="C7pn-Whf5OJO-GKli3ls-5" value="row=1" style="text;html=1;strokeColor=#b85450;fillColor=#f8cecc;align=center;verticalAlign=middle;whiteSpace=wrap;rounded=0;" vertex="1" parent="1">
          <mxGeometry x="535" y="165" width="60" height="30" as="geometry" />
        </mxCell>
        <mxCell id="C7pn-Whf5OJO-GKli3ls-6" value="row=2" style="text;html=1;strokeColor=#b85450;fillColor=#f8cecc;align=center;verticalAlign=middle;whiteSpace=wrap;rounded=0;" vertex="1" parent="1">
          <mxGeometry x="580" y="250" width="60" height="30" as="geometry" />
        </mxCell>
        <mxCell id="C7pn-Whf5OJO-GKli3ls-7" value="row=3" style="text;html=1;strokeColor=#b85450;fillColor=#f8cecc;align=center;verticalAlign=middle;whiteSpace=wrap;rounded=0;" vertex="1" parent="1">
          <mxGeometry x="560" y="340" width="60" height="30" as="geometry" />
        </mxCell>
        <mxCell id="C7pn-Whf5OJO-GKli3ls-8" value="row 0, col 0" style="text;html=1;strokeColor=#56517e;fillColor=#d0cee2;align=center;verticalAlign=middle;whiteSpace=wrap;rounded=0;" vertex="1" parent="1">
          <mxGeometry x="40" y="210" width="80" height="30" as="geometry" />
        </mxCell>
        <mxCell id="C7pn-Whf5OJO-GKli3ls-10" value="row 1, col 0" style="text;html=1;strokeColor=#56517e;fillColor=#d0cee2;align=center;verticalAlign=middle;whiteSpace=wrap;rounded=0;" vertex="1" parent="1">
          <mxGeometry x="30" y="290" width="80" height="30" as="geometry" />
        </mxCell>
        <mxCell id="C7pn-Whf5OJO-GKli3ls-11" value="row 0, col 1" style="text;html=1;strokeColor=#56517e;fillColor=#d0cee2;align=center;verticalAlign=middle;whiteSpace=wrap;rounded=0;" vertex="1" parent="1">
          <mxGeometry x="485" y="210" width="80" height="30" as="geometry" />
        </mxCell>
        <mxCell id="C7pn-Whf5OJO-GKli3ls-12" value="row 1, col 1" style="text;html=1;strokeColor=#56517e;fillColor=#d0cee2;align=center;verticalAlign=middle;whiteSpace=wrap;rounded=0;" vertex="1" parent="1">
          <mxGeometry x="500" y="290" width="80" height="30" as="geometry" />
        </mxCell>
        <mxCell id="C7pn-Whf5OJO-GKli3ls-17" style="edgeStyle=orthogonalEdgeStyle;rounded=0;orthogonalLoop=1;jettySize=auto;html=1;" edge="1" parent="1" source="C7pn-Whf5OJO-GKli3ls-13" target="wm2qEO78UqIm0D2Gvc66-6">
          <mxGeometry relative="1" as="geometry" />
        </mxCell>
        <mxCell id="C7pn-Whf5OJO-GKli3ls-13" value="row 0, col 0" style="text;html=1;strokeColor=#23445d;fillColor=#bac8d3;align=center;verticalAlign=middle;whiteSpace=wrap;rounded=0;" vertex="1" parent="1">
          <mxGeometry x="85" y="460" width="80" height="30" as="geometry" />
        </mxCell>
        <mxCell id="C7pn-Whf5OJO-GKli3ls-18" style="edgeStyle=orthogonalEdgeStyle;rounded=0;orthogonalLoop=1;jettySize=auto;html=1;" edge="1" parent="1" source="C7pn-Whf5OJO-GKli3ls-14" target="wm2qEO78UqIm0D2Gvc66-13">
          <mxGeometry relative="1" as="geometry" />
        </mxCell>
        <mxCell id="C7pn-Whf5OJO-GKli3ls-14" value="row 0, col 1" style="text;html=1;strokeColor=#23445d;fillColor=#bac8d3;align=center;verticalAlign=middle;whiteSpace=wrap;rounded=0;" vertex="1" parent="1">
          <mxGeometry x="205" y="460" width="80" height="30" as="geometry" />
        </mxCell>
        <mxCell id="C7pn-Whf5OJO-GKli3ls-19" style="edgeStyle=orthogonalEdgeStyle;rounded=0;orthogonalLoop=1;jettySize=auto;html=1;" edge="1" parent="1" source="C7pn-Whf5OJO-GKli3ls-15" target="wm2qEO78UqIm0D2Gvc66-14">
          <mxGeometry relative="1" as="geometry" />
        </mxCell>
        <mxCell id="C7pn-Whf5OJO-GKli3ls-15" value="row 0, col 2" style="text;html=1;strokeColor=#23445d;fillColor=#bac8d3;align=center;verticalAlign=middle;whiteSpace=wrap;rounded=0;" vertex="1" parent="1">
          <mxGeometry x="325" y="460" width="80" height="30" as="geometry" />
        </mxCell>
        <mxCell id="C7pn-Whf5OJO-GKli3ls-20" style="edgeStyle=orthogonalEdgeStyle;rounded=0;orthogonalLoop=1;jettySize=auto;html=1;" edge="1" parent="1" source="C7pn-Whf5OJO-GKli3ls-16" target="wm2qEO78UqIm0D2Gvc66-15">
          <mxGeometry relative="1" as="geometry" />
        </mxCell>
        <mxCell id="C7pn-Whf5OJO-GKli3ls-16" value="row 0, col 3" style="text;html=1;strokeColor=#23445d;fillColor=#bac8d3;align=center;verticalAlign=middle;whiteSpace=wrap;rounded=0;" vertex="1" parent="1">
          <mxGeometry x="440" y="460" width="80" height="30" as="geometry" />
        </mxCell>
      </root>
    </mxGraphModel>
  </diagram>
  <diagram id="L323twr7PWqt8KpbR16A" name="Help_GUI">
    <mxGraphModel grid="0" page="1" gridSize="10" guides="1" tooltips="1" connect="1" arrows="1" fold="1" pageScale="1" pageWidth="850" pageHeight="1100" background="#ffffff" math="0" shadow="0">
      <root>
        <mxCell id="0" />
        <mxCell id="1" parent="0" />
        <mxCell id="ri-sC5ETxMSTIwehdFHm-1" value="Help" style="strokeWidth=1;shadow=0;dashed=0;align=center;html=1;shape=mxgraph.mockup.containers.window;align=left;verticalAlign=top;spacingLeft=8;strokeColor2=#008cff;strokeColor3=#c4c4c4;mainText=;fontSize=17;labelBackgroundColor=none;whiteSpace=wrap;fillColor=#ffe6cc;strokeColor=#d79b00;" vertex="1" parent="1">
          <mxGeometry x="60" y="150" width="550" height="300" as="geometry" />
        </mxCell>
        <mxCell id="5vrioHubjXXBVcZhdnHH-1" value="&lt;h1&gt;Help / Hints&lt;/h1&gt;&lt;div&gt;&lt;br&gt;&lt;/div&gt;&lt;div&gt;You&#39;ll be presented with a series of questions about different countries. Read the questions carefully and select the capital that you think is correct. Once you&#39;ve made a selection, you cannot change it. After selecting your answer it will show if it is right or wrong.&amp;nbsp;&lt;br&gt;&lt;/div&gt;&lt;div&gt;&lt;br&gt;&lt;/div&gt;&lt;div&gt;Good luck and enjoy the quiz!&lt;/div&gt;" style="text;html=1;strokeColor=none;fillColor=none;spacing=5;spacingTop=-20;whiteSpace=wrap;overflow=hidden;rounded=0;" vertex="1" parent="1">
          <mxGeometry x="100" y="190" width="480" height="230" as="geometry" />
        </mxCell>
        <mxCell id="AO1snYGXSW6TSe3muagg-1" value="&lt;font color=&quot;#000000&quot;&gt;Dismiss&lt;/font&gt;" style="strokeWidth=1;shadow=0;dashed=0;align=center;html=1;shape=mxgraph.mockup.buttons.button;strokeColor=#666666;fontColor=#ffffff;mainText=;buttonStyle=round;fontSize=17;fontStyle=1;fillColor=default;whiteSpace=wrap;" vertex="1" parent="1">
          <mxGeometry x="265" y="380" width="150" height="50" as="geometry" />
        </mxCell>
        <mxCell id="wslEjWOPmthnarbrNnUo-1" value="" style="endArrow=none;html=1;rounded=0;fillColor=#f8cecc;strokeColor=#b85450;strokeWidth=2;" edge="1" parent="1">
          <mxGeometry width="50" height="50" relative="1" as="geometry">
            <mxPoint x="20" y="240" as="sourcePoint" />
            <mxPoint x="670" y="240" as="targetPoint" />
          </mxGeometry>
        </mxCell>
        <mxCell id="wslEjWOPmthnarbrNnUo-2" value="" style="endArrow=none;html=1;rounded=0;fillColor=#f8cecc;strokeColor=#b85450;strokeWidth=2;" edge="1" parent="1">
          <mxGeometry width="50" height="50" relative="1" as="geometry">
            <mxPoint x="15" y="360" as="sourcePoint" />
            <mxPoint x="665" y="360" as="targetPoint" />
          </mxGeometry>
        </mxCell>
        <mxCell id="wslEjWOPmthnarbrNnUo-3" value="row=0" style="text;html=1;strokeColor=#b85450;fillColor=#f8cecc;align=center;verticalAlign=middle;whiteSpace=wrap;rounded=0;" vertex="1" parent="1">
          <mxGeometry x="630" y="180" width="60" height="30" as="geometry" />
        </mxCell>
        <mxCell id="wslEjWOPmthnarbrNnUo-4" value="row=1" style="text;html=1;strokeColor=#b85450;fillColor=#f8cecc;align=center;verticalAlign=middle;whiteSpace=wrap;rounded=0;" vertex="1" parent="1">
          <mxGeometry x="630" y="270" width="60" height="30" as="geometry" />
        </mxCell>
        <mxCell id="wslEjWOPmthnarbrNnUo-5" value="row=2" style="text;html=1;strokeColor=#b85450;fillColor=#f8cecc;align=center;verticalAlign=middle;whiteSpace=wrap;rounded=0;" vertex="1" parent="1">
          <mxGeometry x="630" y="380" width="60" height="30" as="geometry" />
        </mxCell>
      </root>
    </mxGraphModel>
  </diagram>
  <diagram id="MThgo0svd4fSLehe99at" name="Stats_GUI">
    <mxGraphModel grid="0" page="1" gridSize="10" guides="1" tooltips="1" connect="1" arrows="1" fold="1" pageScale="1" pageWidth="850" pageHeight="1100" background="none" math="0" shadow="0">
      <root>
        <mxCell id="0" />
        <mxCell id="1" parent="0" />
        <mxCell id="xqo9CidqjdddFcvLDN4E-1" value="History" style="strokeWidth=1;shadow=0;dashed=0;align=center;html=1;shape=mxgraph.mockup.containers.window;align=left;verticalAlign=top;spacingLeft=8;strokeColor2=#008cff;strokeColor3=#c4c4c4;mainText=;fontSize=17;labelBackgroundColor=none;whiteSpace=wrap;" vertex="1" parent="1">
          <mxGeometry x="150" y="190" width="550" height="410" as="geometry" />
        </mxCell>
        <mxCell id="wfxOe4uRmPufKyGhm1Sa-1" value="&lt;h1&gt;History&lt;/h1&gt;&lt;div&gt;&lt;br&gt;&lt;/div&gt;" style="text;html=1;strokeColor=none;fillColor=none;spacing=5;spacingTop=-20;whiteSpace=wrap;overflow=hidden;rounded=0;" vertex="1" parent="1">
          <mxGeometry x="200" y="240" width="420" height="240" as="geometry" />
        </mxCell>
        <mxCell id="Bc47jIdNuvXA7r9VbpnC-22" value="&lt;font&gt;Dismiss&lt;/font&gt;" style="strokeWidth=1;shadow=0;dashed=0;align=center;html=1;shape=mxgraph.mockup.buttons.button;strokeColor=#001DBC;mainText=;buttonStyle=round;fontSize=17;fontStyle=1;fillColor=#2644A6;whiteSpace=wrap;fontColor=#ffffff;" vertex="1" parent="1">
          <mxGeometry x="335" y="540" width="150" height="50" as="geometry" />
        </mxCell>
        <mxCell id="Oooqn8cCuiEjyvR72_Zy-4" value="" style="shape=table;html=1;whiteSpace=wrap;startSize=0;container=1;collapsible=0;childLayout=tableLayout;strokeWidth=2;fillColor=#f5f5f5;strokeColor=#666666;fontColor=#333333;" vertex="1" parent="1">
          <mxGeometry x="250" y="330" width="320" height="186.5" as="geometry" />
        </mxCell>
        <mxCell id="Oooqn8cCuiEjyvR72_Zy-5" value="" style="shape=tableRow;horizontal=0;startSize=0;swimlaneHead=0;swimlaneBody=0;top=0;left=0;bottom=0;right=0;collapsible=0;dropTarget=0;fillColor=none;points=[[0,0.5],[1,0.5]];portConstraint=eastwest;" vertex="1" parent="Oooqn8cCuiEjyvR72_Zy-4">
          <mxGeometry width="320" height="31" as="geometry" />
        </mxCell>
        <mxCell id="Oooqn8cCuiEjyvR72_Zy-6" value="Country" style="shape=partialRectangle;html=1;whiteSpace=wrap;connectable=0;fillColor=none;top=0;left=0;bottom=0;right=0;overflow=hidden;fontStyle=1" vertex="1" parent="Oooqn8cCuiEjyvR72_Zy-5">
          <mxGeometry width="160" height="31" as="geometry">
            <mxRectangle width="160" height="31" as="alternateBounds" />
          </mxGeometry>
        </mxCell>
        <mxCell id="Oooqn8cCuiEjyvR72_Zy-7" value="Answer" style="shape=partialRectangle;html=1;whiteSpace=wrap;connectable=0;fillColor=none;top=0;left=0;bottom=0;right=0;overflow=hidden;fontStyle=1" vertex="1" parent="Oooqn8cCuiEjyvR72_Zy-5">
          <mxGeometry x="160" width="160" height="31" as="geometry">
            <mxRectangle width="160" height="31" as="alternateBounds" />
          </mxGeometry>
        </mxCell>
        <mxCell id="Oooqn8cCuiEjyvR72_Zy-8" value="" style="shape=tableRow;horizontal=0;startSize=0;swimlaneHead=0;swimlaneBody=0;top=0;left=0;bottom=0;right=0;collapsible=0;dropTarget=0;fillColor=none;points=[[0,0.5],[1,0.5]];portConstraint=eastwest;" vertex="1" parent="Oooqn8cCuiEjyvR72_Zy-4">
          <mxGeometry y="31" width="320" height="38" as="geometry" />
        </mxCell>
        <mxCell id="Oooqn8cCuiEjyvR72_Zy-9" value="[Name of country]" style="shape=partialRectangle;html=1;whiteSpace=wrap;connectable=0;fillColor=none;top=0;left=0;bottom=0;right=0;overflow=hidden;" vertex="1" parent="Oooqn8cCuiEjyvR72_Zy-8">
          <mxGeometry width="160" height="38" as="geometry">
            <mxRectangle width="160" height="38" as="alternateBounds" />
          </mxGeometry>
        </mxCell>
        <mxCell id="Oooqn8cCuiEjyvR72_Zy-10" value="[Players Answer]" style="shape=partialRectangle;html=1;whiteSpace=wrap;connectable=0;fillColor=none;top=0;left=0;bottom=0;right=0;overflow=hidden;" vertex="1" parent="Oooqn8cCuiEjyvR72_Zy-8">
          <mxGeometry x="160" width="160" height="38" as="geometry">
            <mxRectangle width="160" height="38" as="alternateBounds" />
          </mxGeometry>
        </mxCell>
        <mxCell id="Oooqn8cCuiEjyvR72_Zy-11" value="" style="shape=tableRow;horizontal=0;startSize=0;swimlaneHead=0;swimlaneBody=0;top=0;left=0;bottom=0;right=0;collapsible=0;dropTarget=0;fillColor=none;points=[[0,0.5],[1,0.5]];portConstraint=eastwest;" vertex="1" parent="Oooqn8cCuiEjyvR72_Zy-4">
          <mxGeometry y="69" width="320" height="39" as="geometry" />
        </mxCell>
        <mxCell id="Oooqn8cCuiEjyvR72_Zy-12" value="[Name of country]" style="shape=partialRectangle;html=1;whiteSpace=wrap;connectable=0;fillColor=none;top=0;left=0;bottom=0;right=0;overflow=hidden;" vertex="1" parent="Oooqn8cCuiEjyvR72_Zy-11">
          <mxGeometry width="160" height="39" as="geometry">
            <mxRectangle width="160" height="39" as="alternateBounds" />
          </mxGeometry>
        </mxCell>
        <mxCell id="Oooqn8cCuiEjyvR72_Zy-13" value="[Players Answer]" style="shape=partialRectangle;html=1;whiteSpace=wrap;connectable=0;fillColor=none;top=0;left=0;bottom=0;right=0;overflow=hidden;" vertex="1" parent="Oooqn8cCuiEjyvR72_Zy-11">
          <mxGeometry x="160" width="160" height="39" as="geometry">
            <mxRectangle width="160" height="39" as="alternateBounds" />
          </mxGeometry>
        </mxCell>
        <mxCell id="Oooqn8cCuiEjyvR72_Zy-14" value="" style="shape=tableRow;horizontal=0;startSize=0;swimlaneHead=0;swimlaneBody=0;top=0;left=0;bottom=0;right=0;collapsible=0;dropTarget=0;fillColor=none;points=[[0,0.5],[1,0.5]];portConstraint=eastwest;" vertex="1" parent="Oooqn8cCuiEjyvR72_Zy-4">
          <mxGeometry y="108" width="320" height="39" as="geometry" />
        </mxCell>
        <mxCell id="Oooqn8cCuiEjyvR72_Zy-15" value="[Name of country]" style="shape=partialRectangle;html=1;whiteSpace=wrap;connectable=0;fillColor=none;top=0;left=0;bottom=0;right=0;overflow=hidden;" vertex="1" parent="Oooqn8cCuiEjyvR72_Zy-14">
          <mxGeometry width="160" height="39" as="geometry">
            <mxRectangle width="160" height="39" as="alternateBounds" />
          </mxGeometry>
        </mxCell>
        <mxCell id="Oooqn8cCuiEjyvR72_Zy-16" value="[Players Answer]" style="shape=partialRectangle;html=1;whiteSpace=wrap;connectable=0;fillColor=none;top=0;left=0;bottom=0;right=0;overflow=hidden;" vertex="1" parent="Oooqn8cCuiEjyvR72_Zy-14">
          <mxGeometry x="160" width="160" height="39" as="geometry">
            <mxRectangle width="160" height="39" as="alternateBounds" />
          </mxGeometry>
        </mxCell>
        <mxCell id="Oooqn8cCuiEjyvR72_Zy-17" value="" style="shape=tableRow;horizontal=0;startSize=0;swimlaneHead=0;swimlaneBody=0;top=0;left=0;bottom=0;right=0;collapsible=0;dropTarget=0;fillColor=none;points=[[0,0.5],[1,0.5]];portConstraint=eastwest;" vertex="1" parent="Oooqn8cCuiEjyvR72_Zy-4">
          <mxGeometry y="147" width="320" height="40" as="geometry" />
        </mxCell>
        <mxCell id="Oooqn8cCuiEjyvR72_Zy-18" value="[Name of country]" style="shape=partialRectangle;html=1;whiteSpace=wrap;connectable=0;fillColor=none;top=0;left=0;bottom=0;right=0;overflow=hidden;" vertex="1" parent="Oooqn8cCuiEjyvR72_Zy-17">
          <mxGeometry width="160" height="40" as="geometry">
            <mxRectangle width="160" height="40" as="alternateBounds" />
          </mxGeometry>
        </mxCell>
        <mxCell id="Oooqn8cCuiEjyvR72_Zy-19" value="[Players Answer]" style="shape=partialRectangle;html=1;whiteSpace=wrap;connectable=0;fillColor=none;top=0;left=0;bottom=0;right=0;overflow=hidden;" vertex="1" parent="Oooqn8cCuiEjyvR72_Zy-17">
          <mxGeometry x="160" width="160" height="40" as="geometry">
            <mxRectangle width="160" height="40" as="alternateBounds" />
          </mxGeometry>
        </mxCell>
        <mxCell id="LKOMUnOI3ItIYzAT5isA-1" value="the answer column turns green if the users answer is right and it turns red if the users answer is wrong" style="text;html=1;strokeColor=none;fillColor=none;align=left;verticalAlign=middle;whiteSpace=wrap;rounded=0;" vertex="1" parent="1">
          <mxGeometry x="460" y="600" width="320" height="50" as="geometry" />
        </mxCell>
        <mxCell id="hg6CSxrZy25uPZy9cs0e-1" value="" style="endArrow=none;html=1;rounded=0;fillColor=#f8cecc;strokeColor=#b85450;strokeWidth=2;" edge="1" parent="1">
          <mxGeometry width="50" height="50" relative="1" as="geometry">
            <mxPoint x="115" y="320" as="sourcePoint" />
            <mxPoint x="735" y="320" as="targetPoint" />
          </mxGeometry>
        </mxCell>
        <mxCell id="hg6CSxrZy25uPZy9cs0e-2" value="" style="endArrow=none;html=1;rounded=0;fillColor=#f8cecc;strokeColor=#b85450;strokeWidth=2;" edge="1" parent="1">
          <mxGeometry width="50" height="50" relative="1" as="geometry">
            <mxPoint x="115" y="530" as="sourcePoint" />
            <mxPoint x="735" y="530" as="targetPoint" />
          </mxGeometry>
        </mxCell>
        <mxCell id="hg6CSxrZy25uPZy9cs0e-3" value="row=0" style="text;html=1;strokeColor=#b85450;fillColor=#f8cecc;align=center;verticalAlign=middle;whiteSpace=wrap;rounded=0;" vertex="1" parent="1">
          <mxGeometry x="710" y="230" width="60" height="30" as="geometry" />
        </mxCell>
        <mxCell id="hg6CSxrZy25uPZy9cs0e-5" value="row=1" style="text;html=1;strokeColor=#b85450;fillColor=#f8cecc;align=center;verticalAlign=middle;whiteSpace=wrap;rounded=0;" vertex="1" parent="1">
          <mxGeometry x="710" y="340" width="60" height="30" as="geometry" />
        </mxCell>
        <mxCell id="hg6CSxrZy25uPZy9cs0e-6" value="row=2" style="text;html=1;strokeColor=#b85450;fillColor=#f8cecc;align=center;verticalAlign=middle;whiteSpace=wrap;rounded=0;" vertex="1" parent="1">
          <mxGeometry x="720" y="550" width="60" height="30" as="geometry" />
        </mxCell>
      </root>
    </mxGraphModel>
  </diagram>
</mxfile>
